<svg xmlns="http://www.w3.org/2000/svg" width="24px" height="24px" viewBox="0 0 24 24" id="_24x24_On_Light_Schedule-Alert" data-name="24x24/On Light/Schedule-Alert">
  <rect id="view-box" width="24" height="24" fill="none"/>
  <path id="Shape" d="M14.75,17.5h-12A2.753,2.753,0,0,1,0,14.75v-10A2.754,2.754,0,0,1,2.5,2.012V.75A.75.75,0,1,1,4,.75V2H9.755c0,.077-.006.161-.006.25A5.509,5.509,0,0,0,9.893,3.5H2.75A1.252,1.252,0,0,0,1.5,4.75V6.5H11.762A5.5,5.5,0,0,0,15.25,7.75a5.446,5.446,0,0,0,2.25-.481V14.75A2.753,2.753,0,0,1,14.75,17.5ZM1.5,8v6.75A1.252,1.252,0,0,0,2.75,16h12A1.252,1.252,0,0,0,16,14.75V8ZM16,5.669h0V4.75A1.252,1.252,0,0,0,14.75,3.5H11.98a3.474,3.474,0,0,1-.231-1.25c0-.083,0-.167.009-.25H13.5V.75a.75.75,0,0,1,1.5,0V2.012A2.753,2.753,0,0,1,17.5,4.75v.179a3.505,3.505,0,0,1-1.5.74Z" transform="translate(3.25 3.25)" fill="#141124" style="&#10;    fill: white;&#10;"/>
  <path id="Shape-2" data-name="Shape" d="M3.5,7A3.5,3.5,0,1,1,7,3.5,3.5,3.5,0,0,1,3.5,7Z" transform="translate(15 2)" fill="#ff6359"/>
</svg>